<svg version="1.1" xmlns="http://www.w3.org/2000/svg" xmlns:xlink="http://www.w3.org/1999/xlink" x="0px" y="0px"
	 viewBox="0 0 300 300" enable-background="new 0 0 300 300" xml:space="preserve">
<path d="M216.885,89.824c17.28-17.196,27.997-40.975,27.997-67.214C244.882,10.123,234.759,0,222.272,0H77.741
	C65.254,0,55.131,10.123,55.131,22.609c0,26.24,10.717,50.025,27.99,67.214c-40.038,23.197-67.104,66.413-67.104,115.928
	C16.017,300,113.354,300,150,300s133.983,0,133.983-94.249C283.989,156.237,256.929,113.014,216.885,89.824z M197.66,218.658
	c0,21.408-14.535,34.431-36.097,37.105v8.604c0,6.382-5.174,11.557-11.557,11.557c-6.395,0-11.57-5.174-11.57-11.557v-9.561
	c-10.962-2.067-21.64-6.318-31.052-13.068c-2.952-2.074-5.032-5.898-5.032-10.064c0-6.951,5.549-12.325,12.506-12.325
	c3.456,0,5.891,1.214,7.623,2.429c9.212,6.776,19.276,10.936,31.078,10.936c10.936,0,17.551-4.341,17.551-11.453v-0.349
	c0-6.763-4.173-10.239-24.489-15.445c-24.463-6.247-40.27-13.023-40.27-37.157v-0.342c0-18.792,12.933-32.066,32.099-35.606v-9.057
	c0-6.382,5.174-11.563,11.57-11.563c6.382,0,11.557,5.174,11.557,11.563v9.147c9.541,1.557,18.191,4.787,25.839,9.657
	c2.965,1.725,5.917,5.375,5.917,10.588c0,6.938-5.549,12.325-12.493,12.325c-2.623,0-4.696-0.691-6.776-1.906
	c-8.856-5.207-17.196-8.165-25.536-8.165c-10.232,0-15.62,4.683-15.62,10.588v0.355c0,7.978,5.213,10.588,26.22,15.962
	c24.638,6.428,38.546,15.277,38.546,36.453v0.349L197.66,218.658L197.66,218.658z"/>
</svg>
