<svg version="1.1" xmlns="http://www.w3.org/2000/svg" xmlns:xlink="http://www.w3.org/1999/xlink" x="0px" y="0px"
	 viewBox="0 0 96 96" enable-background="new 0 0 96 96" xml:space="preserve">
<path d="M92.212,40.27V28.668h-4.099L48,1.316L7.886,28.668H3.788V40.27h3.094v47.414H3.788v7H21.6v-7h-3.094V54.27h23.681v33.414
	h-3.094v7h17.813v-7h-3.094V54.27h23.681v33.414H74.4v7h17.813v-7h-3.094V40.27H92.212z M50.151,44.888v4.872h-4.682v-4.538
	c-3.201-0.145-6.308-1.004-8.123-2.054l1.434-5.589c2.007,1.099,4.824,2.102,7.93,2.102c2.724,0,4.586-1.053,4.586-2.962
	c0-1.815-1.528-2.965-5.063-4.157c-5.11-1.722-8.598-4.107-8.598-8.744c0-4.204,2.961-7.498,8.075-8.503v-4.539h4.681v4.205
	c3.199,0.143,5.348,0.813,6.927,1.575l-1.386,5.4c-1.244-0.526-3.439-1.626-6.88-1.626c-3.106,0-4.108,1.34-4.108,2.675
	c0,1.579,1.671,2.585,5.733,4.109c5.686,2.007,7.978,4.635,7.978,8.935C58.654,40.3,55.645,43.932,50.151,44.888z"/>
</svg>
