<svg version="1.1" xmlns="http://www.w3.org/2000/svg" xmlns:xlink="http://www.w3.org/1999/xlink" x="0px" y="0px"
	 viewBox="-1.5 -1.5 29 29" enable-background="new -1.5 -1.5 29 29" xml:space="preserve">
<rect fill="none" width="26" height="26"/>
<path d="M20,0H6C4.3,0,3,1.3,3,3v20c0,1.7,1.3,3,3,3h14c1.7,0,3-1.3,3-3V3C23,1.3,21.7,0,20,0z M21,8c0,0.6-0.4,1-1,1H6
	C5.4,9,5,8.6,5,8V3c0-0.6,0.4-1,1-1h14c0.6,0,1,0.4,1,1V8z M9,13c0,0.6-0.4,1-1,1H6c-0.6,0-1-0.4-1-1v-1c0-0.6,0.4-1,1-1h2
	c0.6,0,1,0.4,1,1V13z M15,13c0,0.6-0.4,1-1,1h-2c-0.6,0-1-0.4-1-1v-1c0-0.6,0.4-1,1-1h2c0.6,0,1,0.4,1,1V13z M21,13c0,0.6-0.4,1-1,1
	h-2c-0.6,0-1-0.4-1-1v-1c0-0.6,0.4-1,1-1h2c0.6,0,1,0.4,1,1V13z M9,18c0,0.6-0.4,1-1,1H6c-0.6,0-1-0.4-1-1v-1c0-0.6,0.4-1,1-1h2
	c0.6,0,1,0.4,1,1V18z M15,18c0,0.6-0.4,1-1,1h-2c-0.6,0-1-0.4-1-1v-1c0-0.6,0.4-1,1-1h2c0.6,0,1,0.4,1,1V18z M21,18c0,0.6-0.4,1-1,1
	h-2c-0.6,0-1-0.4-1-1v-1c0-0.6,0.4-1,1-1h2c0.6,0,1,0.4,1,1V18z M9,23c0,0.6-0.4,1-1,1H6c-0.6,0-1-0.4-1-1v-1c0-0.6,0.4-1,1-1h2
	c0.6,0,1,0.4,1,1V23z M15,23c0,0.6-0.4,1-1,1h-2c-0.6,0-1-0.4-1-1v-1c0-0.6,0.4-1,1-1h2c0.6,0,1,0.4,1,1V23z M21,23c0,0.6-0.4,1-1,1
	h-2c-0.6,0-1-0.4-1-1v-1c0-0.6,0.4-1,1-1h2c0.6,0,1,0.4,1,1V23z"/>
<path d="M20.1,6.2c-0.1-0.1-0.8,0-1.5,0.3c0,0,0.1-0.1,0.1-0.1c0.5-0.9,1-2.2,0.8-2.3c-0.2-0.1-0.8,0.7-1.4,1.4
	c0-1.2-0.3-2.8-0.6-2.8s-0.5,1.5-0.6,2.8c-0.5-0.8-1.2-1.5-1.4-1.4c-0.2,0.1,0.3,1.4,0.8,2.3c0,0,0.1,0.1,0.1,0.1
	C16,6.2,15.2,6,15.1,6.2c-0.1,0.2,0.8,0.7,1.5,1c0.1,0,0.1,0.1,0.2,0.1c-0.4,0.1-0.7,0.3-0.7,0.4c0,0.1,0.6,0,1-0.1
	c0.1,0,0.2-0.1,0.3-0.1v0.7c0,0.1,0.1,0.2,0.2,0.2c0.1,0,0.2-0.1,0.2-0.2V7.4c0.1,0,0.2,0.1,0.3,0.1c0.4,0.1,1,0.2,1,0.1
	c0-0.1-0.3-0.3-0.7-0.4c0.1,0,0.1,0,0.2-0.1C19.3,6.9,20.2,6.3,20.1,6.2z"/>
</svg>
